<mxfile host="app.diagrams.net" modified="2023-05-04T15:11:46.092Z" agent="Mozilla/5.0 (X11; Ubuntu; Linux x86_64; rv:109.0) Gecko/20100101 Firefox/112.0" etag="wbV9sMd3lXOeOlwbC98Q" version="21.2.1" type="device">
  <diagram name="Page-1" id="UXfKpBHKeNKdR_Gs7GOA">
    <mxGraphModel dx="1257" dy="649" grid="1" gridSize="10" guides="1" tooltips="1" connect="1" arrows="1" fold="1" page="1" pageScale="1" pageWidth="850" pageHeight="1100" math="0" shadow="0">
      <root>
        <mxCell id="0" />
        <mxCell id="1" parent="0" />
        <mxCell id="fxziIWzwvu9of2H58kN8-1" value="cenas fixes" style="rounded=0;whiteSpace=wrap;html=1;" vertex="1" parent="1">
          <mxGeometry x="160" y="200" width="120" height="80" as="geometry" />
        </mxCell>
        <mxCell id="fxziIWzwvu9of2H58kN8-2" value="Actor" style="shape=umlActor;verticalLabelPosition=bottom;verticalAlign=top;html=1;outlineConnect=0;" vertex="1" parent="1">
          <mxGeometry x="40" y="220" width="20" height="40" as="geometry" />
        </mxCell>
        <mxCell id="fxziIWzwvu9of2H58kN8-4" value="" style="endArrow=classic;html=1;rounded=0;" edge="1" parent="1">
          <mxGeometry width="50" height="50" relative="1" as="geometry">
            <mxPoint x="70" y="239.29000000000002" as="sourcePoint" />
            <mxPoint x="150" y="239.29000000000002" as="targetPoint" />
          </mxGeometry>
        </mxCell>
        <mxCell id="fxziIWzwvu9of2H58kN8-6" value="files" style="sketch=0;html=1;aspect=fixed;strokeColor=none;shadow=0;fillColor=#3B8DF1;verticalAlign=top;labelPosition=center;verticalLabelPosition=bottom;shape=mxgraph.gcp2.files" vertex="1" parent="1">
          <mxGeometry x="100" y="210" width="27.84" height="27" as="geometry" />
        </mxCell>
        <mxCell id="fxziIWzwvu9of2H58kN8-7" value="" style="endArrow=classic;html=1;rounded=0;" edge="1" parent="1">
          <mxGeometry width="50" height="50" relative="1" as="geometry">
            <mxPoint x="290" y="240.00000000000017" as="sourcePoint" />
            <mxPoint x="370" y="240.00000000000017" as="targetPoint" />
          </mxGeometry>
        </mxCell>
        <mxCell id="fxziIWzwvu9of2H58kN8-8" value="retirar cenas melhores" style="rounded=0;whiteSpace=wrap;html=1;" vertex="1" parent="1">
          <mxGeometry x="380" y="200" width="120" height="80" as="geometry" />
        </mxCell>
      </root>
    </mxGraphModel>
  </diagram>
</mxfile>
